# xmcd CD database file
# Copyright (C) 1996 Ti Kan
#
# Track frame offsets:
# 	183
# 	14393
# 	28833
# 	43223
# 	56238
# 	70573
# 	85933
# 	99315
# 	112468
# 	126323
# 	141568
# 	155643
# 	167855
# 	182935
#
# Disc length: 2635 seconds
#
# Revision: 1
# Processed by: cddbd v1.4b41PL1 Copyright (c) Steve Scherf et al.
# Submitted via: DiscPlay 3.3.1
#
DISCID=d50a490e
DTITLE=Billie Holliday - Good Morning Heartache
DYEAR=1900
DGENRE=
TTITLE0=Good Morning Heartache
TTITLE1=What Is This Thing Called Love
TTITLE2=God Bless The Child
TTITLE3=This Is Heaven To Me
TTITLE4=Solitude
TTITLE5=Don't Explain
TTITLE6=My Man
TTITLE7=That Old Devil Called Love
TTITLE8=Crazy He Calls Me
TTITLE9=You're My Thrill
TTITLE10=No Good Man
TTITLE11=You Better Go Now
TTITLE12=Weep No More
TTITLE13=Lover Man
EXTD=
EXTT0=
EXTT1=
EXTT2=
EXTT3=
EXTT4=
EXTT5=
EXTT6=
EXTT7=
EXTT8=
EXTT9=
EXTT10=
EXTT11=
EXTT12=
EXTT13=Oh Where Can You Be
PLAYORDER=
